<svg width="96" height="18" viewBox="0 0 96 18" fill="none" xmlns="http://www.w3.org/2000/svg">
<g filter="url(#filter0_d_24531_4111)">
<path d="M20.3997 0.165745V5.87017C20.3997 7.21455 19.9998 8.24125 19.2 8.95028C18.4002 9.65009 17.2663 10 15.7984 10C15.0694 10 14.4164 9.90331 13.8394 9.70994C13.2724 9.51657 12.8067 9.24494 12.4423 8.89503C12.0677 9.24494 11.5969 9.51657 11.03 9.70994C10.463 9.90331 9.82015 10 9.10135 10C7.63337 10 6.49948 9.65009 5.69969 8.95028C4.8999 8.24125 4.5 7.21455 4.5 5.87017V0.165745H6.96012V5.8011C6.96012 6.58379 7.1373 7.1639 7.49163 7.54144C7.84597 7.90976 8.37242 8.09392 9.07097 8.09392C10.4985 8.09392 11.2122 7.32965 11.2122 5.8011V0.165745H13.6723V5.8011C13.6723 7.32965 14.3911 8.09392 15.8287 8.09392C17.2258 8.09392 17.9244 7.32965 17.9244 5.8011V0.165745H20.3997Z" fill="#292E39"/>
<path d="M57.6172 0.165745V5.87017C57.6172 7.21455 57.2173 8.24125 56.4175 8.95028C55.6177 9.65009 54.4838 10 53.0158 10C52.2869 10 51.6339 9.90331 51.0568 9.70994C50.4899 9.51657 50.0242 9.24494 49.6597 8.89503C49.2851 9.24494 48.8144 9.51657 48.2474 9.70994C47.6805 9.90331 47.0376 10 46.3188 10C44.8508 10 43.7169 9.65009 42.9172 8.95028C42.1174 8.24125 41.7175 7.21455 41.7175 5.87017V0.165745H44.1776V5.8011C44.1776 6.58379 44.3548 7.1639 44.7091 7.54144C45.0634 7.90976 45.5899 8.09392 46.2884 8.09392C47.7159 8.09392 48.4297 7.32965 48.4297 5.8011V0.165745H50.8898V5.8011C50.8898 7.32965 51.6086 8.09392 53.0462 8.09392C54.4433 8.09392 55.1418 7.32965 55.1418 5.8011V0.165745H57.6172Z" fill="#292E39"/>
<path d="M64.8331 0C65.8151 0 66.6706 0.174954 67.3995 0.524862C68.1285 0.87477 68.6954 1.39042 69.1004 2.07182C69.5053 2.75322 69.7078 3.57735 69.7078 4.5442V9.83425H67.2477V7.51381H62.3882V9.83425H59.9584V4.5442C59.9584 3.57735 60.1609 2.75322 60.5658 2.07182C60.9708 1.39042 61.5377 0.87477 62.2667 0.524862C62.9956 0.174954 63.8511 0 64.8331 0ZM67.2477 5.71823V4.33702C67.2477 3.53591 67.03 2.93278 66.5947 2.52762C66.1593 2.11326 65.5671 1.90608 64.8179 1.90608C64.0586 1.90608 63.4613 2.11326 63.026 2.52762C62.6008 2.93278 62.3882 3.53591 62.3882 4.33702V5.71823H67.2477Z" fill="#292E39"/>
<path d="M82.0595 0.165745L77.4582 9.83425H75.0285L70.4423 0.165745H73.0998L76.3344 7.07182L79.6146 0.165745H82.0595Z" fill="#292E39"/>
<path d="M91.5 9.00552C90.9938 9.3186 90.356 9.56261 89.5866 9.73757C88.8273 9.91252 88.0173 10 87.1568 10C86.0837 10 85.1725 9.88029 84.4233 9.64088C83.6742 9.39226 83.1072 9.05157 82.7225 8.61878C82.3378 8.1768 82.1454 7.67495 82.1454 7.11326C82.1454 6.59761 82.3024 6.14181 82.6162 5.74586C82.9301 5.34991 83.3603 5.05525 83.907 4.86188C83.4919 4.6593 83.168 4.38306 82.9351 4.03315C82.7124 3.68324 82.601 3.2919 82.601 2.85912C82.601 2.33425 82.7782 1.85543 83.1325 1.42265C83.4869 0.989871 84.0234 0.644567 84.7422 0.38674C85.461 0.128913 86.3418 0 87.3846 0C88.073 0 88.7463 0.0644567 89.4043 0.19337C90.0624 0.313075 90.6344 0.478821 91.1203 0.690607L90.437 2.40331C89.5056 2.00737 88.5185 1.80939 87.4757 1.80939C86.686 1.80939 86.0887 1.91989 85.6838 2.14088C85.2889 2.35267 85.0915 2.64273 85.0915 3.01105C85.0915 3.35175 85.2231 3.61418 85.4864 3.79834C85.7597 3.9733 86.1697 4.06077 86.7164 4.06077H89.6169V5.82873H86.5646C85.947 5.82873 85.4712 5.92541 85.1371 6.11878C84.803 6.31215 84.6359 6.593 84.6359 6.96133C84.6359 7.34807 84.8485 7.65193 85.2738 7.87293C85.7091 8.08471 86.3722 8.19061 87.2631 8.19061C87.8908 8.19061 88.5185 8.11694 89.1462 7.96961C89.7738 7.81308 90.3054 7.59669 90.7407 7.32044L91.5 9.00552Z" fill="#292E39"/>
<path d="M35.0481 5.42243H22.5V3.57757H35.0481L32.8263 1.30451L34.1014 0L38.5 4.5L34.1014 9L32.8263 7.69549L35.0481 5.42243Z" fill="#6D31EE"/>
</g>
<defs>
<filter id="filter0_d_24531_4111" x="0.5" y="0" width="95" height="18" filterUnits="userSpaceOnUse" color-interpolation-filters="sRGB">
<feFlood flood-opacity="0" result="BackgroundImageFix"/>
<feColorMatrix in="SourceAlpha" type="matrix" values="0 0 0 0 0 0 0 0 0 0 0 0 0 0 0 0 0 0 127 0" result="hardAlpha"/>
<feOffset dy="4"/>
<feGaussianBlur stdDeviation="2"/>
<feComposite in2="hardAlpha" operator="out"/>
<feColorMatrix type="matrix" values="0 0 0 0 0 0 0 0 0 0 0 0 0 0 0 0 0 0 0.25 0"/>
<feBlend mode="normal" in2="BackgroundImageFix" result="effect1_dropShadow_24531_4111"/>
<feBlend mode="normal" in="SourceGraphic" in2="effect1_dropShadow_24531_4111" result="shape"/>
</filter>
</defs>
</svg>
