<svg width="168" height="28" viewBox="0 0 168 28" fill="none" xmlns="http://www.w3.org/2000/svg">
<g filter="url(#filter0_d_24531_5153)">
<path d="M33.2408 0.331491V11.7403C33.2408 14.4291 32.5054 16.4825 31.0345 17.9006C29.5636 19.3002 27.4783 20 24.7786 20C23.438 20 22.2371 19.8066 21.1758 19.4199C20.1332 19.0331 19.2767 18.4899 18.6064 17.7901C17.9176 18.4899 17.0518 19.0331 16.0091 19.4199C14.9665 19.8066 13.7842 20 12.4622 20C9.76252 20 7.67721 19.3002 6.20633 17.9006C4.73544 16.4825 4 14.4291 4 11.7403V0.331491H8.52437V11.6022C8.52437 13.1676 8.8502 14.3278 9.50186 15.0829C10.1535 15.8195 11.1217 16.1878 12.4064 16.1878C15.0316 16.1878 16.3443 14.6593 16.3443 11.6022V0.331491H20.8686V11.6022C20.8686 14.6593 22.1906 16.1878 24.8344 16.1878C27.4038 16.1878 28.6885 14.6593 28.6885 11.6022V0.331491H33.2408Z" fill="white"/>
<path d="M101.687 0.331491V11.7403C101.687 14.4291 100.951 16.4825 99.4804 17.9006C98.0095 19.3002 95.9242 20 93.2245 20C91.8839 20 90.683 19.8066 89.6217 19.4199C88.5791 19.0331 87.7226 18.4899 87.0524 17.7901C86.3635 18.4899 85.4977 19.0331 84.455 19.4199C83.4124 19.8066 82.2301 20 80.9082 20C78.2084 20 76.1231 19.3002 74.6522 17.9006C73.1814 16.4825 72.4459 14.4291 72.4459 11.7403V0.331491H76.9703V11.6022C76.9703 13.1676 77.2961 14.3278 77.9478 15.0829C78.5994 15.8195 79.5676 16.1878 80.8523 16.1878C83.4775 16.1878 84.7902 14.6593 84.7902 11.6022V0.331491H89.3145V11.6022C89.3145 14.6593 90.6365 16.1878 93.2803 16.1878C95.8497 16.1878 97.1344 14.6593 97.1344 11.6022V0.331491H101.687Z" fill="white"/>
<path d="M114.957 0C116.763 0 118.337 0.349908 119.677 1.04972C121.018 1.74954 122.061 2.78085 122.805 4.14365C123.55 5.50644 123.922 7.1547 123.922 9.0884V19.6685H119.398V15.0276H110.461V19.6685H105.992V9.0884C105.992 7.1547 106.365 5.50644 107.11 4.14365C107.854 2.78085 108.897 1.74954 110.238 1.04972C111.578 0.349908 113.151 0 114.957 0ZM119.398 11.4365V8.67403C119.398 7.07182 118.998 5.86556 118.197 5.05525C117.396 4.22652 116.307 3.81216 114.93 3.81216C113.533 3.81216 112.435 4.22652 111.634 5.05525C110.852 5.86556 110.461 7.07182 110.461 8.67403V11.4365H119.398Z" fill="white"/>
<path d="M146.638 0.331491L138.176 19.6685H133.708L125.273 0.331491H130.161L136.109 14.1436L142.142 0.331491H146.638Z" fill="white"/>
<path d="M164 18.011C163.069 18.6372 161.896 19.1252 160.481 19.4751C159.085 19.825 157.595 20 156.013 20C154.039 20 152.363 19.7606 150.985 19.2818C149.608 18.7845 148.565 18.1031 147.857 17.2376C147.15 16.3536 146.796 15.3499 146.796 14.2265C146.796 13.1952 147.085 12.2836 147.662 11.4917C148.239 10.6998 149.03 10.1105 150.036 9.72376C149.273 9.3186 148.677 8.76611 148.248 8.0663C147.839 7.36648 147.634 6.58379 147.634 5.71823C147.634 4.66851 147.96 3.71087 148.612 2.8453C149.263 1.97974 150.25 1.28913 151.572 0.773481C152.894 0.257827 154.514 0 156.431 0C157.698 0 158.936 0.128913 160.146 0.38674C161.356 0.62615 162.408 0.957641 163.302 1.38121L162.045 4.80663C160.332 4.01473 158.517 3.61878 156.599 3.61878C155.147 3.61878 154.048 3.83978 153.303 4.28177C152.577 4.70534 152.214 5.28545 152.214 6.0221C152.214 6.7035 152.456 7.22836 152.94 7.59668C153.443 7.94659 154.197 8.12155 155.203 8.12155H160.537V11.6575H154.923C153.788 11.6575 152.912 11.8508 152.298 12.2376C151.684 12.6243 151.376 13.186 151.376 13.9227C151.376 14.6961 151.767 15.3039 152.549 15.7459C153.35 16.1694 154.57 16.3812 156.208 16.3812C157.362 16.3812 158.517 16.2339 159.671 15.9392C160.825 15.6262 161.803 15.1934 162.604 14.6409L164 18.011Z" fill="white"/>
<path d="M60.8231 11.2025H37.5483V7.83017H60.8231L56.7019 3.67512L59.067 1.29053L67.2258 9.51633L59.067 17.7421L56.7019 15.3576L60.8231 11.2025Z" fill="#AA9DFA"/>
</g>
<defs>
<filter id="filter0_d_24531_5153" x="0" y="0" width="168" height="28" filterUnits="userSpaceOnUse" color-interpolation-filters="sRGB">
<feFlood flood-opacity="0" result="BackgroundImageFix"/>
<feColorMatrix in="SourceAlpha" type="matrix" values="0 0 0 0 0 0 0 0 0 0 0 0 0 0 0 0 0 0 127 0" result="hardAlpha"/>
<feOffset dy="4"/>
<feGaussianBlur stdDeviation="2"/>
<feComposite in2="hardAlpha" operator="out"/>
<feColorMatrix type="matrix" values="0 0 0 0 0 0 0 0 0 0 0 0 0 0 0 0 0 0 0.25 0"/>
<feBlend mode="normal" in2="BackgroundImageFix" result="effect1_dropShadow_24531_5153"/>
<feBlend mode="normal" in="SourceGraphic" in2="effect1_dropShadow_24531_5153" result="shape"/>
</filter>
</defs>
</svg>
